# xmcd CD database file
#
# Track frame offsets:
#	150
#	10457
#	21978
#	33016
#	43906
#	59998
#	72589
#	86061
#	102961
#	123311
#	138191
#	154569
#	173457
#	187703
#
# Disc length: 2732 seconds
#
# Revision: 0
# Processed by: cddbd v1.5.1PL2 Copyright (c) Steve Scherf et al.
# Submitted via: CDex 1.51
#
DISCID=b70aaa0e
DTITLE=Leifen and Friends - Memories
DYEAR=2000
DGENRE=Country
TTITLE0=Honky-tonk Girl
TTITLE1=Waltz a Cross Texas
TTITLE2=Sundown and Sorrow
TTITLE3=There's a New Moon over my Shoulder
TTITLE4=Take these Chains from my Heart
TTITLE5=La meg gi deg en Sang
TTITLE6=Family Bible
TTITLE7=Take up the Cross
TTITLE8=I'll Always Remember You
TTITLE9=Memory
TTITLE10=En Favn full av Kärlek
TTITLE11=Gløm inte bort dom fina Åren
TTITLE12=Guitar Boogie (instrumental)
TTITLE13=Sølvbrura
EXTD=YEAR: 2000
EXTT0=
EXTT1=
EXTT2=
EXTT3=
EXTT4=
EXTT5=
EXTT6=
EXTT7=
EXTT8=
EXTT9=
EXTT10=
EXTT11=
EXTT12=
EXTT13=
PLAYORDER=
